<svg xmlns="http://www.w3.org/2000/svg" viewBox="0 0 512 512">
    <!-- FontAwesome fa-water path -->
    <path fill="#FFFFFF" d="M8 416c0 13.3 10.7 24 24 24h448c13.3 0 24-10.7 24-24s-10.7-24-24-24H32c-13.3 0-24 10.7-24 24zm0-128c0 13.3 10.7 24 24 24h448c13.3 0 24-10.7 24-24s-10.7-24-24-24H32c-13.3 0-24 10.7-24 24zm0-128c0 13.3 10.7 24 24 24h448c13.3 0 24-10.7 24-24s-10.7-24-24-24H32c-13.3 0-24 10.7-24 24zm22.8-106c11.6-11 29.8-10.5 40.8 1.1 27.6 29.2 64.6 45 103.8 45s76.2-15.8 103.8-45c11-11.6 29.2-12.1 40.8-1.1s12.1 29.2 1.1 40.8C283.4 105.1 230 126 175.4 126s-108-20.9-145.7-60.8c-11-11.6-10.5-29.8 1.1-40.8zM489.2 54c11.6-11 29.8-10.5 40.8 1.1s10.5 29.8-1.1 40.8c-28.7 30.2-68.5 47.9-110.2 49-11.7.3-21.4-8.9-21.7-20.6s8.9-21.4 20.6-21.7c26.9-.7 52.4-12 71.6-32.6z" />
</svg>
